<mxfile host="app.diagrams.net" modified="2021-10-19T05:57:19.859Z" agent="5.0 (Macintosh; Intel Mac OS X 10_15_7) AppleWebKit/537.36 (KHTML, like Gecko) Chrome/94.0.4606.81 Safari/537.36" etag="4Hx82067Cvk7B1-3Wf53" version="15.5.5" type="github">
  <diagram id="6TE-dwfcBSoJK40eaQSV" name="Page-1">
    <mxGraphModel dx="2013" dy="543" grid="1" gridSize="10" guides="1" tooltips="1" connect="1" arrows="1" fold="1" page="1" pageScale="1" pageWidth="827" pageHeight="1169" math="0" shadow="0">
      <root>
        <mxCell id="0" />
        <mxCell id="1" parent="0" />
        <mxCell id="94AUSnZL_g0OkHAxdMRL-2" value="&lt;span style=&quot;color: rgb(36 , 41 , 46) ; font-family: , , &amp;#34;segoe ui&amp;#34; , &amp;#34;helvetica&amp;#34; , &amp;#34;arial&amp;#34; , sans-serif , &amp;#34;apple color emoji&amp;#34; , &amp;#34;segoe ui emoji&amp;#34; , &amp;#34;segoe ui symbol&amp;#34; ; font-size: 16px ; background-color: rgb(255 , 255 , 255)&quot;&gt;Check person&#39;s credit situation&lt;/span&gt;" style="ellipse;whiteSpace=wrap;html=1;" vertex="1" parent="1">
          <mxGeometry x="269" y="20" width="290" height="80" as="geometry" />
        </mxCell>
        <mxCell id="94AUSnZL_g0OkHAxdMRL-3" value="checkGoodCredit" style="rounded=0;whiteSpace=wrap;html=1;" vertex="1" parent="1">
          <mxGeometry x="480" y="380" width="282" height="70" as="geometry" />
        </mxCell>
        <mxCell id="94AUSnZL_g0OkHAxdMRL-4" value="checkIdValid&amp;nbsp;" style="rounded=0;whiteSpace=wrap;html=1;" vertex="1" parent="1">
          <mxGeometry x="480" y="240" width="236" height="60" as="geometry" />
        </mxCell>
        <mxCell id="94AUSnZL_g0OkHAxdMRL-5" value="checkCreditCondition" style="rounded=0;whiteSpace=wrap;html=1;" vertex="1" parent="1">
          <mxGeometry x="140" y="130" width="200" height="410" as="geometry" />
        </mxCell>
        <mxCell id="94AUSnZL_g0OkHAxdMRL-6" value="" style="endArrow=classic;html=1;rounded=0;" edge="1" parent="1">
          <mxGeometry width="50" height="50" relative="1" as="geometry">
            <mxPoint x="369" y="250" as="sourcePoint" />
            <mxPoint x="459" y="250" as="targetPoint" />
          </mxGeometry>
        </mxCell>
        <mxCell id="94AUSnZL_g0OkHAxdMRL-7" value="" style="endArrow=classic;html=1;rounded=0;" edge="1" parent="1">
          <mxGeometry width="50" height="50" relative="1" as="geometry">
            <mxPoint x="368.5" y="400" as="sourcePoint" />
            <mxPoint x="458.5" y="400" as="targetPoint" />
          </mxGeometry>
        </mxCell>
        <mxCell id="94AUSnZL_g0OkHAxdMRL-8" value="" style="endArrow=classic;html=1;rounded=0;" edge="1" parent="1">
          <mxGeometry width="50" height="50" relative="1" as="geometry">
            <mxPoint x="450" y="280" as="sourcePoint" />
            <mxPoint x="370" y="280" as="targetPoint" />
          </mxGeometry>
        </mxCell>
        <mxCell id="94AUSnZL_g0OkHAxdMRL-9" value="" style="endArrow=classic;html=1;rounded=0;" edge="1" parent="1">
          <mxGeometry width="50" height="50" relative="1" as="geometry">
            <mxPoint x="454" y="414.5" as="sourcePoint" />
            <mxPoint x="360" y="415" as="targetPoint" />
          </mxGeometry>
        </mxCell>
        <mxCell id="94AUSnZL_g0OkHAxdMRL-10" value="id: String" style="text;html=1;strokeColor=none;fillColor=none;align=center;verticalAlign=middle;whiteSpace=wrap;rounded=0;" vertex="1" parent="1">
          <mxGeometry x="370" y="210" width="70" height="30" as="geometry" />
        </mxCell>
        <mxCell id="94AUSnZL_g0OkHAxdMRL-11" value="id: String" style="text;html=1;strokeColor=none;fillColor=none;align=center;verticalAlign=middle;whiteSpace=wrap;rounded=0;" vertex="1" parent="1">
          <mxGeometry x="370" y="370" width="70" height="30" as="geometry" />
        </mxCell>
        <mxCell id="94AUSnZL_g0OkHAxdMRL-12" value="validId: boolean" style="text;html=1;strokeColor=none;fillColor=none;align=center;verticalAlign=middle;whiteSpace=wrap;rounded=0;" vertex="1" parent="1">
          <mxGeometry x="360.75" y="280" width="98.5" height="30" as="geometry" />
        </mxCell>
        <mxCell id="94AUSnZL_g0OkHAxdMRL-13" value="goodCredit: boolean" style="text;html=1;strokeColor=none;fillColor=none;align=center;verticalAlign=middle;whiteSpace=wrap;rounded=0;" vertex="1" parent="1">
          <mxGeometry x="340" y="420" width="140" height="30" as="geometry" />
        </mxCell>
        <mxCell id="94AUSnZL_g0OkHAxdMRL-14" value="" style="endArrow=classic;html=1;rounded=0;" edge="1" parent="1">
          <mxGeometry width="50" height="50" relative="1" as="geometry">
            <mxPoint x="40" y="239" as="sourcePoint" />
            <mxPoint x="130" y="239" as="targetPoint" />
          </mxGeometry>
        </mxCell>
        <mxCell id="94AUSnZL_g0OkHAxdMRL-15" value="id: String" style="text;html=1;strokeColor=none;fillColor=none;align=center;verticalAlign=middle;whiteSpace=wrap;rounded=0;" vertex="1" parent="1">
          <mxGeometry x="41" y="199" width="70" height="30" as="geometry" />
        </mxCell>
        <mxCell id="94AUSnZL_g0OkHAxdMRL-17" value="" style="endArrow=classic;html=1;rounded=0;" edge="1" parent="1">
          <mxGeometry width="50" height="50" relative="1" as="geometry">
            <mxPoint x="135" y="380" as="sourcePoint" />
            <mxPoint x="41" y="380.5" as="targetPoint" />
          </mxGeometry>
        </mxCell>
        <mxCell id="94AUSnZL_g0OkHAxdMRL-18" value="goodCondition: boolean" style="text;html=1;strokeColor=none;fillColor=none;align=center;verticalAlign=middle;whiteSpace=wrap;rounded=0;" vertex="1" parent="1">
          <mxGeometry x="-10" y="390" width="141" height="30" as="geometry" />
        </mxCell>
      </root>
    </mxGraphModel>
  </diagram>
</mxfile>
